<mxfile host="Electron" agent="Mozilla/5.0 (Windows NT 10.0; Win64; x64) AppleWebKit/537.36 (KHTML, like Gecko) draw.io/24.7.17 Chrome/128.0.6613.36 Electron/32.0.1 Safari/537.36" version="24.7.17">
  <diagram name="第 1 页" id="SZQc6Eh8MvbjrHK9DCnG">
    <mxGraphModel dx="1221" dy="717" grid="1" gridSize="10" guides="1" tooltips="1" connect="1" arrows="1" fold="1" page="1" pageScale="1" pageWidth="4681" pageHeight="3300" math="0" shadow="0">
      <root>
        <mxCell id="0" />
        <mxCell id="1" parent="0" />
        <mxCell id="TohRpoP14cO7ECIvDLAj-1" value="订单" style="whiteSpace=wrap;html=1;align=center;" parent="1" vertex="1">
          <mxGeometry x="730" y="410" width="100" height="40" as="geometry" />
        </mxCell>
        <mxCell id="TohRpoP14cO7ECIvDLAj-2" value="商品" style="whiteSpace=wrap;html=1;align=center;" parent="1" vertex="1">
          <mxGeometry x="390" y="410" width="100" height="40" as="geometry" />
        </mxCell>
        <mxCell id="TohRpoP14cO7ECIvDLAj-3" value="议价" style="whiteSpace=wrap;html=1;align=center;" parent="1" vertex="1">
          <mxGeometry x="730" y="650" width="100" height="40" as="geometry" />
        </mxCell>
        <mxCell id="TohRpoP14cO7ECIvDLAj-4" value="换物" style="whiteSpace=wrap;html=1;align=center;" parent="1" vertex="1">
          <mxGeometry x="500" y="261" width="100" height="40" as="geometry" />
        </mxCell>
        <mxCell id="TohRpoP14cO7ECIvDLAj-5" value="虚拟账户" style="whiteSpace=wrap;html=1;align=center;" parent="1" vertex="1">
          <mxGeometry x="1050" y="315" width="100" height="40" as="geometry" />
        </mxCell>
        <mxCell id="TohRpoP14cO7ECIvDLAj-6" value="通知信息" style="whiteSpace=wrap;html=1;align=center;" parent="1" vertex="1">
          <mxGeometry x="1040" y="620" width="100" height="40" as="geometry" />
        </mxCell>
        <mxCell id="TohRpoP14cO7ECIvDLAj-8" value="" style="edgeStyle=orthogonalEdgeStyle;rounded=0;orthogonalLoop=1;jettySize=auto;html=1;shape=link;" parent="1" source="TohRpoP14cO7ECIvDLAj-7" target="TohRpoP14cO7ECIvDLAj-1" edge="1">
          <mxGeometry relative="1" as="geometry" />
        </mxCell>
        <mxCell id="TohRpoP14cO7ECIvDLAj-9" value="" style="edgeStyle=orthogonalEdgeStyle;rounded=0;orthogonalLoop=1;jettySize=auto;html=1;endArrow=none;endFill=0;" parent="1" source="TohRpoP14cO7ECIvDLAj-7" target="TohRpoP14cO7ECIvDLAj-2" edge="1">
          <mxGeometry relative="1" as="geometry" />
        </mxCell>
        <mxCell id="TohRpoP14cO7ECIvDLAj-7" value="关联商品" style="shape=rhombus;perimeter=rhombusPerimeter;whiteSpace=wrap;html=1;align=center;" parent="1" vertex="1">
          <mxGeometry x="550" y="400" width="120" height="60" as="geometry" />
        </mxCell>
        <mxCell id="TohRpoP14cO7ECIvDLAj-11" value="" style="edgeStyle=orthogonalEdgeStyle;rounded=0;orthogonalLoop=1;jettySize=auto;html=1;endArrow=none;endFill=0;exitX=0;exitY=0.5;exitDx=0;exitDy=0;entryX=1;entryY=0.5;entryDx=0;entryDy=0;" parent="1" source="TohRpoP14cO7ECIvDLAj-10" target="TohRpoP14cO7ECIvDLAj-1" edge="1">
          <mxGeometry relative="1" as="geometry" />
        </mxCell>
        <mxCell id="TohRpoP14cO7ECIvDLAj-12" value="" style="edgeStyle=orthogonalEdgeStyle;rounded=0;orthogonalLoop=1;jettySize=auto;html=1;endArrow=none;endFill=0;exitX=1;exitY=0.5;exitDx=0;exitDy=0;entryX=1;entryY=0.5;entryDx=0;entryDy=0;" parent="1" source="TohRpoP14cO7ECIvDLAj-10" target="TohRpoP14cO7ECIvDLAj-6" edge="1">
          <mxGeometry relative="1" as="geometry" />
        </mxCell>
        <mxCell id="TohRpoP14cO7ECIvDLAj-10" value="订单状态变更" style="shape=rhombus;perimeter=rhombusPerimeter;whiteSpace=wrap;html=1;align=center;" parent="1" vertex="1">
          <mxGeometry x="950" y="400" width="120" height="60" as="geometry" />
        </mxCell>
        <mxCell id="TohRpoP14cO7ECIvDLAj-14" value="" style="edgeStyle=orthogonalEdgeStyle;rounded=0;orthogonalLoop=1;jettySize=auto;html=1;exitX=1;exitY=0.5;exitDx=0;exitDy=0;" parent="1" source="TohRpoP14cO7ECIvDLAj-13" target="TohRpoP14cO7ECIvDLAj-5" edge="1">
          <mxGeometry relative="1" as="geometry" />
        </mxCell>
        <mxCell id="TohRpoP14cO7ECIvDLAj-16" value="" style="edgeStyle=orthogonalEdgeStyle;rounded=0;orthogonalLoop=1;jettySize=auto;html=1;entryX=0.75;entryY=0;entryDx=0;entryDy=0;exitX=0;exitY=0.5;exitDx=0;exitDy=0;shape=link;" parent="1" source="TohRpoP14cO7ECIvDLAj-13" target="TohRpoP14cO7ECIvDLAj-1" edge="1">
          <mxGeometry relative="1" as="geometry">
            <mxPoint x="780" y="350" as="targetPoint" />
          </mxGeometry>
        </mxCell>
        <mxCell id="TohRpoP14cO7ECIvDLAj-13" value="支付" style="shape=rhombus;perimeter=rhombusPerimeter;whiteSpace=wrap;html=1;align=center;" parent="1" vertex="1">
          <mxGeometry x="915" y="245" width="120" height="60" as="geometry" />
        </mxCell>
        <mxCell id="TohRpoP14cO7ECIvDLAj-18" value="" style="edgeStyle=orthogonalEdgeStyle;rounded=0;orthogonalLoop=1;jettySize=auto;html=1;exitX=0;exitY=0.5;exitDx=0;exitDy=0;entryX=0;entryY=0.5;entryDx=0;entryDy=0;" parent="1" source="TohRpoP14cO7ECIvDLAj-17" target="TohRpoP14cO7ECIvDLAj-2" edge="1">
          <mxGeometry relative="1" as="geometry">
            <mxPoint x="300" y="390" as="targetPoint" />
          </mxGeometry>
        </mxCell>
        <mxCell id="TohRpoP14cO7ECIvDLAj-19" value="" style="edgeStyle=orthogonalEdgeStyle;rounded=0;orthogonalLoop=1;jettySize=auto;html=1;exitX=1;exitY=0.5;exitDx=0;exitDy=0;" parent="1" source="TohRpoP14cO7ECIvDLAj-17" target="TohRpoP14cO7ECIvDLAj-4" edge="1">
          <mxGeometry relative="1" as="geometry" />
        </mxCell>
        <mxCell id="TohRpoP14cO7ECIvDLAj-17" value="涉及交换商品" style="shape=rhombus;perimeter=rhombusPerimeter;whiteSpace=wrap;html=1;align=center;" parent="1" vertex="1">
          <mxGeometry x="310" y="246" width="140" height="70" as="geometry" />
        </mxCell>
        <mxCell id="TohRpoP14cO7ECIvDLAj-21" value="" style="edgeStyle=orthogonalEdgeStyle;rounded=0;orthogonalLoop=1;jettySize=auto;html=1;shape=link;" parent="1" source="TohRpoP14cO7ECIvDLAj-20" target="TohRpoP14cO7ECIvDLAj-3" edge="1">
          <mxGeometry relative="1" as="geometry" />
        </mxCell>
        <mxCell id="TohRpoP14cO7ECIvDLAj-22" value="" style="edgeStyle=orthogonalEdgeStyle;rounded=0;orthogonalLoop=1;jettySize=auto;html=1;" parent="1" source="TohRpoP14cO7ECIvDLAj-20" target="TohRpoP14cO7ECIvDLAj-1" edge="1">
          <mxGeometry relative="1" as="geometry" />
        </mxCell>
        <mxCell id="TohRpoP14cO7ECIvDLAj-20" value="议价订单" style="shape=rhombus;perimeter=rhombusPerimeter;whiteSpace=wrap;html=1;align=center;" parent="1" vertex="1">
          <mxGeometry x="720" y="550" width="120" height="60" as="geometry" />
        </mxCell>
        <mxCell id="TTYjNtVWinrXDabp-wqT-1" value="换物ID" style="ellipse;whiteSpace=wrap;html=1;align=center;fontStyle=4;" parent="1" vertex="1">
          <mxGeometry x="515" y="156" width="70" height="30" as="geometry" />
        </mxCell>
        <mxCell id="TTYjNtVWinrXDabp-wqT-2" value="" style="endArrow=none;html=1;rounded=0;exitX=0.5;exitY=1;exitDx=0;exitDy=0;entryX=0.5;entryY=0;entryDx=0;entryDy=0;" parent="1" source="TTYjNtVWinrXDabp-wqT-1" target="TohRpoP14cO7ECIvDLAj-4" edge="1">
          <mxGeometry relative="1" as="geometry">
            <mxPoint x="410" y="426" as="sourcePoint" />
            <mxPoint x="570" y="426" as="targetPoint" />
          </mxGeometry>
        </mxCell>
        <mxCell id="TTYjNtVWinrXDabp-wqT-3" value="换物条件描述" style="ellipse;whiteSpace=wrap;html=1;align=center;" parent="1" vertex="1">
          <mxGeometry x="410" y="166" width="95" height="40" as="geometry" />
        </mxCell>
        <mxCell id="TTYjNtVWinrXDabp-wqT-4" value="" style="endArrow=none;html=1;rounded=0;exitX=0.5;exitY=1;exitDx=0;exitDy=0;entryX=0.25;entryY=0;entryDx=0;entryDy=0;" parent="1" source="TTYjNtVWinrXDabp-wqT-3" target="TohRpoP14cO7ECIvDLAj-4" edge="1">
          <mxGeometry relative="1" as="geometry">
            <mxPoint x="560" y="196" as="sourcePoint" />
            <mxPoint x="560" y="271" as="targetPoint" />
          </mxGeometry>
        </mxCell>
        <mxCell id="TTYjNtVWinrXDabp-wqT-5" value="状态" style="ellipse;whiteSpace=wrap;html=1;align=center;" parent="1" vertex="1">
          <mxGeometry x="600" y="167" width="70" height="30" as="geometry" />
        </mxCell>
        <mxCell id="TTYjNtVWinrXDabp-wqT-6" value="" style="endArrow=none;html=1;rounded=0;exitX=0.5;exitY=1;exitDx=0;exitDy=0;entryX=0.75;entryY=0;entryDx=0;entryDy=0;" parent="1" target="TohRpoP14cO7ECIvDLAj-4" edge="1">
          <mxGeometry relative="1" as="geometry">
            <mxPoint x="635" y="196" as="sourcePoint" />
            <mxPoint x="570" y="281" as="targetPoint" />
          </mxGeometry>
        </mxCell>
        <mxCell id="TTYjNtVWinrXDabp-wqT-7" value="订单ID" style="ellipse;whiteSpace=wrap;html=1;align=center;fontStyle=4;" parent="1" vertex="1">
          <mxGeometry x="600" y="350" width="70" height="30" as="geometry" />
        </mxCell>
        <mxCell id="TTYjNtVWinrXDabp-wqT-8" value="" style="endArrow=none;html=1;rounded=0;exitX=0.5;exitY=1;exitDx=0;exitDy=0;entryX=0;entryY=0.25;entryDx=0;entryDy=0;" parent="1" source="TTYjNtVWinrXDabp-wqT-7" target="TohRpoP14cO7ECIvDLAj-1" edge="1">
          <mxGeometry relative="1" as="geometry">
            <mxPoint x="653" y="360" as="sourcePoint" />
            <mxPoint x="720" y="415" as="targetPoint" />
          </mxGeometry>
        </mxCell>
        <mxCell id="TTYjNtVWinrXDabp-wqT-9" value="订单总额" style="ellipse;whiteSpace=wrap;html=1;align=center;" parent="1" vertex="1">
          <mxGeometry x="670" y="320" width="80" height="30" as="geometry" />
        </mxCell>
        <mxCell id="TTYjNtVWinrXDabp-wqT-10" value="" style="endArrow=none;html=1;rounded=0;exitX=0.5;exitY=1;exitDx=0;exitDy=0;entryX=0.25;entryY=0;entryDx=0;entryDy=0;" parent="1" source="TTYjNtVWinrXDabp-wqT-9" target="TohRpoP14cO7ECIvDLAj-1" edge="1">
          <mxGeometry relative="1" as="geometry">
            <mxPoint x="645" y="390" as="sourcePoint" />
            <mxPoint x="740" y="430" as="targetPoint" />
          </mxGeometry>
        </mxCell>
        <mxCell id="TTYjNtVWinrXDabp-wqT-11" value="状态" style="ellipse;whiteSpace=wrap;html=1;align=center;" parent="1" vertex="1">
          <mxGeometry x="575" y="480" width="70" height="30" as="geometry" />
        </mxCell>
        <mxCell id="TTYjNtVWinrXDabp-wqT-12" value="" style="endArrow=none;html=1;rounded=0;exitX=1;exitY=0.5;exitDx=0;exitDy=0;entryX=0;entryY=0.75;entryDx=0;entryDy=0;" parent="1" source="TTYjNtVWinrXDabp-wqT-11" target="TohRpoP14cO7ECIvDLAj-1" edge="1">
          <mxGeometry relative="1" as="geometry">
            <mxPoint x="655" y="400" as="sourcePoint" />
            <mxPoint x="750" y="440" as="targetPoint" />
          </mxGeometry>
        </mxCell>
        <mxCell id="TTYjNtVWinrXDabp-wqT-13" value="订单创建时间" style="ellipse;whiteSpace=wrap;html=1;align=center;" parent="1" vertex="1">
          <mxGeometry x="585" y="530" width="95" height="40" as="geometry" />
        </mxCell>
        <mxCell id="TTYjNtVWinrXDabp-wqT-14" value="" style="endArrow=none;html=1;rounded=0;exitX=1;exitY=0.5;exitDx=0;exitDy=0;entryX=0.25;entryY=1;entryDx=0;entryDy=0;" parent="1" source="TTYjNtVWinrXDabp-wqT-13" target="TohRpoP14cO7ECIvDLAj-1" edge="1">
          <mxGeometry relative="1" as="geometry">
            <mxPoint x="665" y="410" as="sourcePoint" />
            <mxPoint x="760" y="450" as="targetPoint" />
          </mxGeometry>
        </mxCell>
        <mxCell id="TTYjNtVWinrXDabp-wqT-15" value="支付超时时间" style="ellipse;whiteSpace=wrap;html=1;align=center;" parent="1" vertex="1">
          <mxGeometry x="870" y="530" width="90" height="40" as="geometry" />
        </mxCell>
        <mxCell id="TTYjNtVWinrXDabp-wqT-16" value="" style="endArrow=none;html=1;rounded=0;exitX=0.75;exitY=1;exitDx=0;exitDy=0;entryX=0;entryY=0.5;entryDx=0;entryDy=0;" parent="1" source="TohRpoP14cO7ECIvDLAj-1" target="TTYjNtVWinrXDabp-wqT-15" edge="1">
          <mxGeometry relative="1" as="geometry">
            <mxPoint x="675" y="420" as="sourcePoint" />
            <mxPoint x="770" y="460" as="targetPoint" />
          </mxGeometry>
        </mxCell>
        <mxCell id="TTYjNtVWinrXDabp-wqT-17" value="成交价" style="ellipse;whiteSpace=wrap;html=1;align=center;" parent="1" vertex="1">
          <mxGeometry x="920" y="470" width="60" height="30" as="geometry" />
        </mxCell>
        <mxCell id="TTYjNtVWinrXDabp-wqT-18" value="" style="endArrow=none;html=1;rounded=0;exitX=1;exitY=0.75;exitDx=0;exitDy=0;entryX=0;entryY=0.5;entryDx=0;entryDy=0;" parent="1" source="TohRpoP14cO7ECIvDLAj-1" target="TTYjNtVWinrXDabp-wqT-17" edge="1">
          <mxGeometry relative="1" as="geometry">
            <mxPoint x="685" y="430" as="sourcePoint" />
            <mxPoint x="780" y="470" as="targetPoint" />
          </mxGeometry>
        </mxCell>
        <mxCell id="TTYjNtVWinrXDabp-wqT-19" value="议价ID" style="ellipse;whiteSpace=wrap;html=1;align=center;fontStyle=4;" parent="1" vertex="1">
          <mxGeometry x="740" y="740" width="80" height="40" as="geometry" />
        </mxCell>
        <mxCell id="TTYjNtVWinrXDabp-wqT-20" value="" style="endArrow=none;html=1;rounded=0;exitX=0.5;exitY=1;exitDx=0;exitDy=0;entryX=0.5;entryY=0;entryDx=0;entryDy=0;" parent="1" source="TohRpoP14cO7ECIvDLAj-3" target="TTYjNtVWinrXDabp-wqT-19" edge="1">
          <mxGeometry relative="1" as="geometry">
            <mxPoint x="695" y="680" as="sourcePoint" />
            <mxPoint x="790" y="720" as="targetPoint" />
          </mxGeometry>
        </mxCell>
        <mxCell id="TTYjNtVWinrXDabp-wqT-21" value="提议价格" style="ellipse;whiteSpace=wrap;html=1;align=center;" parent="1" vertex="1">
          <mxGeometry x="640" y="760" width="80" height="40" as="geometry" />
        </mxCell>
        <mxCell id="TTYjNtVWinrXDabp-wqT-22" value="" style="endArrow=none;html=1;rounded=0;exitX=0.25;exitY=1;exitDx=0;exitDy=0;entryX=0.5;entryY=0;entryDx=0;entryDy=0;" parent="1" source="TohRpoP14cO7ECIvDLAj-3" target="TTYjNtVWinrXDabp-wqT-21" edge="1">
          <mxGeometry relative="1" as="geometry">
            <mxPoint x="790" y="700" as="sourcePoint" />
            <mxPoint x="790" y="750" as="targetPoint" />
          </mxGeometry>
        </mxCell>
        <mxCell id="TTYjNtVWinrXDabp-wqT-23" value="状态" style="ellipse;whiteSpace=wrap;html=1;align=center;" parent="1" vertex="1">
          <mxGeometry x="845" y="765" width="70" height="30" as="geometry" />
        </mxCell>
        <mxCell id="TTYjNtVWinrXDabp-wqT-24" value="" style="endArrow=none;html=1;rounded=0;exitX=0.75;exitY=1;exitDx=0;exitDy=0;entryX=0.5;entryY=0;entryDx=0;entryDy=0;" parent="1" source="TohRpoP14cO7ECIvDLAj-3" target="TTYjNtVWinrXDabp-wqT-23" edge="1">
          <mxGeometry relative="1" as="geometry">
            <mxPoint x="800" y="710" as="sourcePoint" />
            <mxPoint x="800" y="760" as="targetPoint" />
          </mxGeometry>
        </mxCell>
        <mxCell id="TTYjNtVWinrXDabp-wqT-25" value="通知记录ID" style="ellipse;whiteSpace=wrap;html=1;align=center;fontStyle=4;" parent="1" vertex="1">
          <mxGeometry x="880" y="620" width="90" height="40" as="geometry" />
        </mxCell>
        <mxCell id="TTYjNtVWinrXDabp-wqT-26" value="" style="endArrow=none;html=1;rounded=0;exitX=1;exitY=0.5;exitDx=0;exitDy=0;entryX=0;entryY=0.5;entryDx=0;entryDy=0;" parent="1" source="TTYjNtVWinrXDabp-wqT-25" target="TohRpoP14cO7ECIvDLAj-6" edge="1">
          <mxGeometry relative="1" as="geometry">
            <mxPoint x="990" y="660" as="sourcePoint" />
            <mxPoint x="990" y="710" as="targetPoint" />
          </mxGeometry>
        </mxCell>
        <mxCell id="TTYjNtVWinrXDabp-wqT-27" value="通知内容模板" style="ellipse;whiteSpace=wrap;html=1;align=center;" parent="1" vertex="1">
          <mxGeometry x="930" y="690" width="100" height="40" as="geometry" />
        </mxCell>
        <mxCell id="TTYjNtVWinrXDabp-wqT-28" value="" style="endArrow=none;html=1;rounded=0;exitX=0.5;exitY=0;exitDx=0;exitDy=0;entryX=0.25;entryY=1;entryDx=0;entryDy=0;" parent="1" source="TTYjNtVWinrXDabp-wqT-27" target="TohRpoP14cO7ECIvDLAj-6" edge="1">
          <mxGeometry relative="1" as="geometry">
            <mxPoint x="980" y="650" as="sourcePoint" />
            <mxPoint x="1050" y="650" as="targetPoint" />
          </mxGeometry>
        </mxCell>
        <mxCell id="TTYjNtVWinrXDabp-wqT-29" value="发送状态" style="ellipse;whiteSpace=wrap;html=1;align=center;" parent="1" vertex="1">
          <mxGeometry x="970" y="560" width="80" height="40" as="geometry" />
        </mxCell>
        <mxCell id="TTYjNtVWinrXDabp-wqT-30" value="" style="endArrow=none;html=1;rounded=0;exitX=1;exitY=0.5;exitDx=0;exitDy=0;entryX=0.5;entryY=0;entryDx=0;entryDy=0;" parent="1" source="TTYjNtVWinrXDabp-wqT-29" target="TohRpoP14cO7ECIvDLAj-6" edge="1">
          <mxGeometry relative="1" as="geometry">
            <mxPoint x="990" y="660" as="sourcePoint" />
            <mxPoint x="1060" y="660" as="targetPoint" />
          </mxGeometry>
        </mxCell>
        <mxCell id="TTYjNtVWinrXDabp-wqT-31" value="重试次数" style="ellipse;whiteSpace=wrap;html=1;align=center;" parent="1" vertex="1">
          <mxGeometry x="1050" y="720" width="80" height="40" as="geometry" />
        </mxCell>
        <mxCell id="TTYjNtVWinrXDabp-wqT-32" value="" style="endArrow=none;html=1;rounded=0;exitX=0.5;exitY=0;exitDx=0;exitDy=0;entryX=0.5;entryY=1;entryDx=0;entryDy=0;" parent="1" source="TTYjNtVWinrXDabp-wqT-31" target="TohRpoP14cO7ECIvDLAj-6" edge="1">
          <mxGeometry relative="1" as="geometry">
            <mxPoint x="1000" y="670" as="sourcePoint" />
            <mxPoint x="1070" y="670" as="targetPoint" />
          </mxGeometry>
        </mxCell>
        <mxCell id="TTYjNtVWinrXDabp-wqT-33" value="最后尝试时间" style="ellipse;whiteSpace=wrap;html=1;align=center;" parent="1" vertex="1">
          <mxGeometry x="1150" y="690" width="100" height="40" as="geometry" />
        </mxCell>
        <mxCell id="TTYjNtVWinrXDabp-wqT-34" value="" style="endArrow=none;html=1;rounded=0;exitX=0.5;exitY=0;exitDx=0;exitDy=0;entryX=0.75;entryY=1;entryDx=0;entryDy=0;" parent="1" source="TTYjNtVWinrXDabp-wqT-33" target="TohRpoP14cO7ECIvDLAj-6" edge="1">
          <mxGeometry relative="1" as="geometry">
            <mxPoint x="1010" y="680" as="sourcePoint" />
            <mxPoint x="1080" y="680" as="targetPoint" />
          </mxGeometry>
        </mxCell>
        <mxCell id="KrtG_-6_W4uL551d5srG-1" value="抽象订单" style="whiteSpace=wrap;html=1;align=center;" vertex="1" parent="1">
          <mxGeometry x="925" y="130" width="100" height="40" as="geometry" />
        </mxCell>
        <mxCell id="KrtG_-6_W4uL551d5srG-2" value="抽象订单ID" style="ellipse;whiteSpace=wrap;html=1;align=center;fontStyle=4;" vertex="1" parent="1">
          <mxGeometry x="885" y="30" width="80" height="40" as="geometry" />
        </mxCell>
        <mxCell id="KrtG_-6_W4uL551d5srG-3" value="类型" style="ellipse;whiteSpace=wrap;html=1;align=center;" vertex="1" parent="1">
          <mxGeometry x="1005" y="35" width="70" height="30" as="geometry" />
        </mxCell>
        <mxCell id="KrtG_-6_W4uL551d5srG-4" value="" style="endArrow=none;html=1;rounded=0;exitX=0.5;exitY=1;exitDx=0;exitDy=0;entryX=0.25;entryY=0;entryDx=0;entryDy=0;" edge="1" parent="1" source="KrtG_-6_W4uL551d5srG-2" target="KrtG_-6_W4uL551d5srG-1">
          <mxGeometry relative="1" as="geometry">
            <mxPoint x="915" y="80" as="sourcePoint" />
            <mxPoint x="915" y="155" as="targetPoint" />
          </mxGeometry>
        </mxCell>
        <mxCell id="KrtG_-6_W4uL551d5srG-5" value="" style="endArrow=none;html=1;rounded=0;exitX=0.5;exitY=1;exitDx=0;exitDy=0;entryX=0.75;entryY=0;entryDx=0;entryDy=0;" edge="1" parent="1" source="KrtG_-6_W4uL551d5srG-3" target="KrtG_-6_W4uL551d5srG-1">
          <mxGeometry relative="1" as="geometry">
            <mxPoint x="1004" y="70" as="sourcePoint" />
            <mxPoint x="1004" y="145" as="targetPoint" />
          </mxGeometry>
        </mxCell>
        <mxCell id="KrtG_-6_W4uL551d5srG-7" value="" style="edgeStyle=orthogonalEdgeStyle;rounded=0;orthogonalLoop=1;jettySize=auto;html=1;" edge="1" parent="1" source="KrtG_-6_W4uL551d5srG-6" target="KrtG_-6_W4uL551d5srG-1">
          <mxGeometry relative="1" as="geometry" />
        </mxCell>
        <mxCell id="KrtG_-6_W4uL551d5srG-10" value="" style="edgeStyle=orthogonalEdgeStyle;rounded=0;orthogonalLoop=1;jettySize=auto;html=1;entryX=1;entryY=0.25;entryDx=0;entryDy=0;" edge="1" parent="1" source="KrtG_-6_W4uL551d5srG-6" target="TohRpoP14cO7ECIvDLAj-4">
          <mxGeometry relative="1" as="geometry" />
        </mxCell>
        <mxCell id="KrtG_-6_W4uL551d5srG-6" value="获取换物ID" style="shape=rhombus;perimeter=rhombusPerimeter;whiteSpace=wrap;html=1;align=center;" vertex="1" parent="1">
          <mxGeometry x="760" y="120" width="120" height="60" as="geometry" />
        </mxCell>
        <mxCell id="KrtG_-6_W4uL551d5srG-12" value="" style="edgeStyle=orthogonalEdgeStyle;rounded=0;orthogonalLoop=1;jettySize=auto;html=1;entryX=0.25;entryY=1;entryDx=0;entryDy=0;" edge="1" parent="1" source="KrtG_-6_W4uL551d5srG-11" target="KrtG_-6_W4uL551d5srG-1">
          <mxGeometry relative="1" as="geometry" />
        </mxCell>
        <mxCell id="KrtG_-6_W4uL551d5srG-13" value="" style="edgeStyle=orthogonalEdgeStyle;rounded=0;orthogonalLoop=1;jettySize=auto;html=1;entryX=0.5;entryY=0;entryDx=0;entryDy=0;" edge="1" parent="1" source="KrtG_-6_W4uL551d5srG-11" target="TohRpoP14cO7ECIvDLAj-1">
          <mxGeometry relative="1" as="geometry" />
        </mxCell>
        <mxCell id="KrtG_-6_W4uL551d5srG-11" value="获取订单ID" style="shape=rhombus;perimeter=rhombusPerimeter;whiteSpace=wrap;html=1;align=center;" vertex="1" parent="1">
          <mxGeometry x="720" y="186" width="120" height="60" as="geometry" />
        </mxCell>
      </root>
    </mxGraphModel>
  </diagram>
</mxfile>
